<svg xmlns="http://www.w3.org/2000/svg" enable-background="new 0 0 24 24" viewBox="0 0 24 24" id="git"><path d="M6.119 24c-3.205 0-5.119-1.45-5.119-3.878 0-1.382.66-2.43 1.92-3.066-.354-.476-.528-1.105-.483-1.795.035-.534.204-1.017.466-1.377-1.104-.778-1.762-2.366-1.762-3.644 0-1.731.828-3.199 2.272-4.027 1.459-.836 3.27-.843 4.757-.027.737-.02 1.536-.206 2.437-.568.155-.063.329-.044.467.05.138.093.22.248.22.414v2.592c0 .213-.136.403-.337.473-.177.061-.354.117-.533.167.053.242.078.481.078.721 0 2.425-1.497 4.274-3.814 4.711-.53.112-.587.27-.587.602 0 .404.513.582 1.601.866 1.477.386 3.498.915 3.498 3.385-.002 2.007-.883 4.401-5.081 4.401zm-.313-17.421c-.657 0-1.312.167-1.895.5-1.126.645-1.771 1.797-1.771 3.16.001 1.154.753 2.701 1.757 3.044.203.069.339.259.339.473 0 .197-.115.427-.295.507-.261.117-.473.563-.506 1.062-.016.238-.018 1.044.614 1.435.147.091.237.252.237.425 0 .215-.138.458-.341.526-1.308.439-1.945 1.227-1.945 2.411 0 2.504 2.581 2.878 4.119 2.878 2.783 0 4.079-1.081 4.079-3.402 0-1.58-1.089-1.983-2.751-2.417-1.1-.288-2.347-.614-2.347-1.834 0-1.289 1.047-1.51 1.391-1.583 1.861-.351 3.011-1.78 3.011-3.731 0-.292-.057-.589-.172-.906-.05-.135-.039-.285.029-.411.07-.126.189-.216.329-.248.204-.046.405-.099.604-.159v-1.514c-.803.263-1.544.391-2.251.391-.089 0-.176-.024-.253-.068-.612-.36-1.299-.539-1.982-.539zm.439 15.204c-2.221 0-2.687-.975-2.687-1.793.004-.688.334-1.84 2.509-1.84h.009c.998 0 1.692.208 2.12.636.295.294.451.691.451 1.147 0 .691-.312 1.85-2.402 1.85zm-.177-2.634c-1.506.001-1.509.591-1.51.843 0 .214 0 .791 1.687.791 1.402 0 1.402-.575 1.402-.851 0-.214 0-.783-1.579-.783zm-.161-6.648c-1.322-.001-2.08-.816-2.08-2.236 0-.713.212-1.321.612-1.758.375-.409.882-.633 1.427-.633 1.014 0 2.04.812 2.04 2.366 0 1.437-.728 2.261-1.999 2.261zm-.041-3.627c-.517 0-1.039.43-1.039 1.392 0 1.088.546 1.235 1.08 1.235v.001c.519 0 .999-.153.999-1.261 0-.945-.522-1.367-1.04-1.367zM20.203 18.06c-3.519 0-3.519-3.309-3.519-4.899v-4.078c-.126.003-.306.021-.609.069-.146.022-.291-.019-.402-.113-.111-.095-.176-.234-.176-.38v-2.44c0-.276.224-.5.5-.5h.713c.001-.77 0-1.132-.068-1.53-.025-.146.015-.294.109-.407.096-.113.235-.178.383-.178h2.862c.145 0 .283.063.378.172.095.11.138.255.117.398-.073.507-.075 1.013-.072 1.544h2.077c.276 0 .5.224.5.5v2.439c0 .137-.057.268-.156.363-.099.094-.238.144-.37.137-.009 0-.778-.04-2.049-.049v4.175c0 1.185.421 1.185.601 1.185.433 0 .9-.132 1.192-.336.152-.108.351-.12.518-.034.164.086.268.257.268.444v2.516c0 .181-.098.348-.256.437-.838.467-1.845.565-2.541.565zm-2.518-9.294v4.395c0 2.47.412 3.899 2.519 3.899.688 0 1.313-.11 1.797-.314v-1.423c-.312.094-.647.146-.979.146-.598 0-1.601-.284-1.601-2.185v-4.678c0-.276.224-.5.5-.5.92 0 1.631.017 2.075.031v-1.418h-2.075c-.276 0-.5-.224-.5-.5l-.002-.357c-.002-.411-.005-.831.023-1.258h-1.749c.018.312.018.669.017 1.18l-.001.435c0 .276-.224.5-.5.5h-.712v1.373c.223-.018.365-.01.514.004.059.005.117.011.198.011.276 0 .5.224.5.5 0 .054-.009.107-.024.159zm4.815 8.292h.01zM13.424 4.743c-1.235 0-2.241-1.058-2.241-2.359 0-1.315 1.005-2.384 2.241-2.384 1.217 0 2.206 1.069 2.206 2.384 0 1.279-1.01 2.359-2.206 2.359zm0-3.743c-.767 0-1.241.718-1.241 1.384 0 .75.557 1.359 1.241 1.359.722 0 1.206-.703 1.206-1.359 0-.669-.484-1.384-1.206-1.384zM14.817 17.891h-2.803c-.141 0-.273-.059-.368-.162s-.143-.242-.13-.381c.084-.959.085-10.382.002-11.079-.018-.142.027-.285.122-.392s.231-.168.374-.168h2.803c.144 0 .279.062.374.168s.14.25.122.392c-.084.695-.082 10.117.002 11.078.013.14-.034.278-.129.382-.094.103-.228.162-.369.162zm-2.282-1h1.762c-.051-1.97-.066-8.186-.006-10.182h-1.751c.062 1.996.045 8.212-.005 10.182z"></path></svg>